# xmcd
#
# Track frame offsets:
#	150
#	13877
#	27918
#	40010
#	54234
#	68538
#	81278
#	93749
#	107500
#	120143
#	132173
#	145426
#	158388
#	170785
#	183833
#	198188
#	210276
#	224534
#	236815
#	248761
#	262669
#	275018
#
# Disc length: 3852 seconds
#
# Revision: 1
# Processed by: cddbd v1.5.2PL0 Copyright (c) Steve Scherf et al.
# Submitted via: audiograbber 1.83.01
#
DISCID=270f0a16
DTITLE=T Bone Walker - T Bone Jumps Again
DYEAR=1900
DGENRE=Blues
TTITLE0=Call It Stormy Monday
TTITLE1=Description Blues
TTITLE2=Dream Girl Blues
TTITLE3=First Love Blues
TTITLE4=GoodBye Blues
TTITLE5=Hypin' Woman Blues
TTITLE6=I Know Your Wig Is Gone
TTITLE7=I'm Waiting For Your Call
TTITLE8=Inspiration Blues
TTITLE9=Lonesome Woman Blues
TTITLE10=Long Lost Lover Blues
TTITLE11=Long Skirt Baby Blues
TTITLE12=Midnight Blues
TTITLE13=On Your Way Blues
TTITLE14=She Had To Let Me Down
TTITLE15=She's My Old Used To Be
TTITLE16=So Blue Blues
TTITLE17=T-Bone Jumps Again
TTITLE18=That's Better For Me
TTITLE19=The Natural Blues
TTITLE20=Too Much Trouble Blues
TTITLE21=Triflin' Woman Blues
EXTD=
EXTT0=
EXTT1=
EXTT2=
EXTT3=
EXTT4=
EXTT5=
EXTT6=
EXTT7=
EXTT8=
EXTT9=
EXTT10=
EXTT11=
EXTT12=
EXTT13=
EXTT14=
EXTT15=
EXTT16=
EXTT17=
EXTT18=
EXTT19=
EXTT20=
EXTT21=
PLAYORDER=
